<?xml version="1.0" encoding="utf-8"?>
<!-- Generator: Adobe Illustrator 22.0.1, SVG Export Plug-In . SVG Version: 6.00 Build 0)  -->
<svg version="1.1" id="Capa_1" xmlns="http://www.w3.org/2000/svg" xmlns:xlink="http://www.w3.org/1999/xlink" x="0px" y="0px"
	 viewBox="0 0 50 50" style="enable-background:new 0 0 50 50;" xml:space="preserve">
<style type="text/css">
	.st0{fill:#FFFFFF;}
	.st1{fill:#5C6BC0;}
</style>
<rect class="st0" width="50" height="50"/>
<path class="st1" d="M25,5C14,5,5,14.2,5,25.5c0,9.1,5.7,16.7,13.7,19.5c1,0.2,1.4-0.4,1.4-1c0-0.5,0-1.8,0-3.5
	c-5.6,1.2-6.7-2.7-6.7-2.7c-0.9-2.4-2.2-3-2.2-3c-1.8-1.3,0.1-1.2,0.1-1.2c2,0.1,3.1,2.1,3.1,2.1c1.8,3.1,4.7,2.2,5.8,1.7
	c0.2-1.3,0.7-2.2,1.3-2.7c-4.4-0.5-9.1-2.3-9.1-10.1c0-2.2,0.8-4.1,2.1-5.5c-0.2-0.5-0.9-2.6,0.2-5.4c0,0,1.7-0.6,5.5,2.1
	c1.6-0.5,3.3-0.7,5-0.7c1.7,0,3.4,0.2,5,0.7c3.8-2.7,5.5-2.1,5.5-2.1c1.1,2.8,0.4,4.9,0.2,5.4c1.3,1.4,2.1,3.3,2.1,5.5
	c0,7.9-4.7,9.6-9.1,10.1c0.7,0.6,1.4,1.9,1.4,3.8c0,2.7,0,5,0,5.6c0,0.5,0.4,1.2,1.4,1C39.3,42.2,45,34.6,45,25.5C45,14.2,36,5,25,5
	z"/>
</svg>
