<?xml version="1.0" encoding="utf-8"?>
<!-- Generator: Adobe Illustrator 22.0.1, SVG Export Plug-In . SVG Version: 6.00 Build 0)  -->
<svg version="1.1" id="Capa_1" xmlns="http://www.w3.org/2000/svg" xmlns:xlink="http://www.w3.org/1999/xlink" x="0px" y="0px"
	 viewBox="0 0 80 80" style="enable-background:new 0 0 80 80;" xml:space="preserve">
<style type="text/css">
	.st0{fill:#FFFFFF;}
	.st1{fill:#5C6BC0;}
</style>
<rect class="st0" width="80" height="80"/>
<path class="st1" d="M40,8C22.3,8,8,22.7,8,40.8c0,14.5,9.2,26.8,21.9,31.1c1.6,0.3,2.2-0.7,2.2-1.6c0-0.8,0-2.8,0-5.6
	c-8.9,2-10.8-4.4-10.8-4.4c-1.5-3.8-3.6-4.8-3.6-4.8c-2.9-2,0.2-2,0.2-2c3.2,0.2,4.9,3.4,4.9,3.4c2.9,5,7.5,3.6,9.3,2.7
	c0.3-2.1,1.1-3.6,2-4.4c-7.1-0.8-14.6-3.6-14.6-16.2c0-3.6,1.2-6.5,3.3-8.8c-0.3-0.8-1.4-4.2,0.3-8.7c0,0,2.7-0.9,8.8,3.4
	c2.6-0.7,5.3-1.1,8-1.1c2.7,0,5.5,0.4,8,1.1c6.1-4.2,8.8-3.4,8.8-3.4c1.7,4.5,0.6,7.9,0.3,8.7c2.1,2.3,3.3,5.2,3.3,8.8
	c0,12.6-7.5,15.4-14.6,16.2c1.1,1,2.2,3,2.2,6.1c0,4.4,0,7.9,0,9c0,0.9,0.6,1.9,2.2,1.6C62.8,67.6,72,55.3,72,40.8
	C72,22.7,57.7,8,40,8z"/>
</svg>
