<?xml version="1.0" encoding="utf-8"?>
<!-- Generator: Adobe Illustrator 22.0.1, SVG Export Plug-In . SVG Version: 6.00 Build 0)  -->
<svg version="1.1" id="Capa_1" xmlns="http://www.w3.org/2000/svg" xmlns:xlink="http://www.w3.org/1999/xlink" x="0px" y="0px"
	 viewBox="0 0 80 80" style="enable-background:new 0 0 80 80;" xml:space="preserve">
<style type="text/css">
	.st0{fill:#FFFFFF;}
	.st1{fill:url(#SVGID_1_);}
	.st2{fill:url(#SVGID_2_);}
	.st3{fill:url(#SVGID_3_);}
</style>
<rect class="st0" width="80" height="80"/>
<linearGradient id="SVGID_1_" gradientUnits="userSpaceOnUse" x1="-241.0763" y1="-561.3925" x2="-239.4425" y2="-563.0263" gradientTransform="matrix(32 0 0 32 7728.2998 18030.6992)">
	<stop  offset="0" style="stop-color:#FFC107"/>
	<stop  offset="0.507" style="stop-color:#F44336"/>
	<stop  offset="0.99" style="stop-color:#9C27B0"/>
</linearGradient>
<path class="st1" d="M52,8H28C17,8,8,17,8,28v24c0,11,9,20,20,20h24c11,0,20-9,20-20V28C72,17,63,8,52,8z M66,52c0,7.7-6.3,14-14,14
	H28c-7.7,0-14-6.3-14-14V28c0-7.7,6.3-14,14-14h24c7.7,0,14,6.3,14,14V52z"/>
<linearGradient id="SVGID_2_" gradientUnits="userSpaceOnUse" x1="-240.6129" y1="-561.8558" x2="-239.9058" y2="-562.5629" gradientTransform="matrix(32 0 0 32 7728.2998 18030.6992)">
	<stop  offset="0" style="stop-color:#FFC107"/>
	<stop  offset="0.507" style="stop-color:#F44336"/>
	<stop  offset="0.99" style="stop-color:#9C27B0"/>
</linearGradient>
<path class="st2" d="M40,24c-8.8,0-16,7.2-16,16s7.2,16,16,16s16-7.2,16-16S48.8,24,40,24z M40,50c-5.5,0-10-4.5-10-10
	c0-5.5,4.5-10,10-10s10,4.5,10,10C50,45.5,45.5,50,40,50z"/>
<linearGradient id="SVGID_3_" gradientUnits="userSpaceOnUse" x1="-240.3065" y1="-562.1622" x2="-240.2123" y2="-562.2565" gradientTransform="matrix(32 0 0 32 7728.2998 18030.6992)">
	<stop  offset="0" style="stop-color:#FFC107"/>
	<stop  offset="0.507" style="stop-color:#F44336"/>
	<stop  offset="0.99" style="stop-color:#9C27B0"/>
</linearGradient>
<circle class="st3" cx="40" cy="40" r="2.1"/>
</svg>
