<?xml version="1.0" encoding="utf-8"?>
<!-- Generator: Adobe Illustrator 22.0.1, SVG Export Plug-In . SVG Version: 6.00 Build 0)  -->
<svg version="1.1" id="Capa_1" xmlns="http://www.w3.org/2000/svg" xmlns:xlink="http://www.w3.org/1999/xlink" x="0px" y="0px"
	 viewBox="0 0 50 50" style="enable-background:new 0 0 50 50;" xml:space="preserve">
<style type="text/css">
	.st0{fill:#FFFFFF;}
	.st1{fill:url(#SVGID_1_);}
	.st2{fill:url(#SVGID_2_);}
	.st3{fill:url(#SVGID_3_);}
</style>
<rect class="st0" width="50" height="50"/>
<linearGradient id="SVGID_1_" gradientUnits="userSpaceOnUse" x1="-255.7699" y1="-576.6988" x2="-254.7488" y2="-577.72" gradientTransform="matrix(32 0 0 32 8193.2998 18495.6992)">
	<stop  offset="0" style="stop-color:#FFC107"/>
	<stop  offset="0.507" style="stop-color:#F44336"/>
	<stop  offset="0.99" style="stop-color:#9C27B0"/>
</linearGradient>
<path class="st1" d="M32.5,5h-15C10.6,5,5,10.6,5,17.5v15C5,39.4,10.6,45,17.5,45h15C39.4,45,45,39.4,45,32.5v-15
	C45,10.6,39.4,5,32.5,5z M41.3,32.5c0,4.8-3.9,8.8-8.8,8.8h-15c-4.8,0-8.8-3.9-8.8-8.8v-15c0-4.8,3.9-8.8,8.8-8.8h15
	c4.8,0,8.8,3.9,8.8,8.8V32.5z"/>
<linearGradient id="SVGID_2_" gradientUnits="userSpaceOnUse" x1="-255.4803" y1="-576.9884" x2="-255.0384" y2="-577.4304" gradientTransform="matrix(32 0 0 32 8193.2998 18495.6992)">
	<stop  offset="0" style="stop-color:#FFC107"/>
	<stop  offset="0.507" style="stop-color:#F44336"/>
	<stop  offset="0.99" style="stop-color:#9C27B0"/>
</linearGradient>
<path class="st2" d="M25,15c-5.5,0-10,4.5-10,10s4.5,10,10,10s10-4.5,10-10S30.5,15,25,15z M25,31.3c-3.4,0-6.3-2.8-6.3-6.3
	c0-3.4,2.8-6.3,6.3-6.3s6.3,2.8,6.3,6.3C31.3,28.4,28.4,31.3,25,31.3z"/>
<linearGradient id="SVGID_3_" gradientUnits="userSpaceOnUse" x1="-255.2888" y1="-577.1799" x2="-255.2299" y2="-577.2388" gradientTransform="matrix(32 0 0 32 8193.2998 18495.6992)">
	<stop  offset="0" style="stop-color:#FFC107"/>
	<stop  offset="0.507" style="stop-color:#F44336"/>
	<stop  offset="0.99" style="stop-color:#9C27B0"/>
</linearGradient>
<circle class="st3" cx="25" cy="25" r="1.3"/>
</svg>
