<?xml version="1.0" encoding="utf-8"?>
<!-- Generator: Adobe Illustrator 22.0.1, SVG Export Plug-In . SVG Version: 6.00 Build 0)  -->
<svg version="1.1" id="Capa_1" xmlns="http://www.w3.org/2000/svg" xmlns:xlink="http://www.w3.org/1999/xlink" x="0px" y="0px"
	 viewBox="0 0 50 50" style="enable-background:new 0 0 50 50;" xml:space="preserve">
<style type="text/css">
	.st0{fill:#FFFFFF;}
	.st1{fill:#F44336;}
	.st2{fill:#FAFAFA;}
</style>
<rect class="st0" width="50" height="50"/>
<g>
	<path class="st1" d="M43.3,13.9c-1.1-1.9-2.3-2.3-4.7-2.4c-2.4-0.2-8.4-0.2-13.6-0.2c-5.2,0-11.3,0.1-13.6,0.2
		C9,11.6,7.8,12,6.7,13.9C5.6,15.8,5,19.1,5,25c0,0,0,0,0,0c0,0,0,0,0,0v0c0,5.8,0.6,9.2,1.7,11.1c1.1,1.9,2.3,2.3,4.7,2.4
		c2.4,0.1,8.4,0.2,13.6,0.2c5.2,0,11.2-0.1,13.6-0.2c2.4-0.2,3.6-0.5,4.7-2.4C44.4,34.2,45,30.8,45,25c0,0,0,0,0,0c0,0,0,0,0,0
		C45,19.1,44.4,15.8,43.3,13.9z"/>
	<polygon class="st2" points="20,32.5 20,17.5 32.5,25 	"/>
</g>
</svg>
