<?xml version="1.0" encoding="utf-8"?>
<!-- Generator: Adobe Illustrator 22.0.1, SVG Export Plug-In . SVG Version: 6.00 Build 0)  -->
<svg version="1.1" id="Capa_1" xmlns="http://www.w3.org/2000/svg" xmlns:xlink="http://www.w3.org/1999/xlink" x="0px" y="0px"
	 viewBox="0 0 80 80" style="enable-background:new 0 0 80 80;" xml:space="preserve">
<style type="text/css">
	.st0{fill:#FFFFFF;}
	.st1{fill:#F44336;}
	.st2{fill:#FAFAFA;}
</style>
<rect class="st0" width="80" height="80"/>
<g>
	<path class="st1" d="M69.3,22.2c-1.7-3.1-3.6-3.7-7.5-3.9C58,18.1,48.4,18,40,18c-8.4,0-18,0.1-21.8,0.4c-3.8,0.2-5.7,0.8-7.5,3.9
		C8.9,25.3,8,30.6,8,40c0,0,0,0,0,0c0,0,0,0,0,0v0c0,9.3,0.9,14.7,2.7,17.7c1.8,3.1,3.6,3.6,7.5,3.9C22,61.9,31.6,62,40,62
		c8.3,0,18-0.1,21.8-0.4c3.8-0.3,5.7-0.8,7.5-3.9C71.1,54.7,72,49.3,72,40c0,0,0,0,0,0c0,0,0,0,0,0C72,30.6,71.1,25.3,69.3,22.2z"/>
	<polygon class="st2" points="32,52 32,28 52,40 	"/>
</g>
</svg>
